<svg id="Group_765" data-name="Group 765" xmlns="http://www.w3.org/2000/svg" xmlns:xlink="http://www.w3.org/1999/xlink" width="346.299" height="93.648" viewBox="0 0 346.299 93.648">
  <defs>
    <clipPath id="clip-path">
      <rect id="Rectangle_736" data-name="Rectangle 736" width="346.299" height="93.649" fill="none"/>
    </clipPath>
  </defs>
  <path id="Path_849" data-name="Path 849" d="M87.181,31.811h6.505l6.393,29.878h.112l7.9-29.878h4.468l7.873,29.878h.111l6.422-29.878h6.505L123.307,73.838h-5.165l-7.761-30.309h-.113L102.48,73.838H97.343Z" transform="translate(21.11 7.703)" fill="#fff"/>
  <g id="Group_707" data-name="Group 707" transform="translate(0 0)">
    <g id="Group_706" data-name="Group 706" clip-path="url(#clip-path)">
      <path id="Path_850" data-name="Path 850" d="M124.543,56.562a27.01,27.01,0,0,1,.754-7.276,10.592,10.592,0,0,1,2.4-4.186,11,11,0,0,1,3.351-2.668,12.1,12.1,0,0,1,5.444-1.175,12.332,12.332,0,0,1,5.557,1.181,10.508,10.508,0,0,1,3.238,2.681,9.511,9.511,0,0,1,2.451,4.18,29.124,29.124,0,0,1,.7,7.264,28.266,28.266,0,0,1-.7,7.207,10.33,10.33,0,0,1-2.457,4.3,9.178,9.178,0,0,1-1.366,1.3,6.371,6.371,0,0,1-1.871,1.24,11.339,11.339,0,0,1-5.554,1.3,11.918,11.918,0,0,1-8.793-3.834,11.632,11.632,0,0,1-2.4-4.3,26.2,26.2,0,0,1-.754-7.207m18.074.058a27.921,27.921,0,0,0-.279-4.687,5.635,5.635,0,0,0-1.148-2.487,4.3,4.3,0,0,0-1.9-1.59,6.132,6.132,0,0,0-2.8-.607,6.23,6.23,0,0,0-2.743.607,5.2,5.2,0,0,0-1.959,1.59,7.072,7.072,0,0,0-1.091,2.487,22.844,22.844,0,0,0-.337,4.628,22.182,22.182,0,0,0,.337,4.571,7.656,7.656,0,0,0,1.091,2.6,7.105,7.105,0,0,0,1.959,1.533,5.988,5.988,0,0,0,2.743.637,5.893,5.893,0,0,0,2.8-.637,5.518,5.518,0,0,0,1.9-1.533,6.074,6.074,0,0,0,1.148-2.6,26.184,26.184,0,0,0,.279-4.513" transform="translate(30.157 9.99)" fill="#fff"/>
      <path id="Path_851" data-name="Path 851" d="M148.094,31.811h5.817V66.144q0,2.048,2.184,2.048h2.016v5.647h-2.595A8.173,8.173,0,0,1,150.27,72.2q-2.176-1.662-2.176-5.6Z" transform="translate(35.86 7.703)" fill="#fff"/>
      <path id="Path_852" data-name="Path 852" d="M163.916,58.865a7.128,7.128,0,0,0,2.012,5.482,6.583,6.583,0,0,0,4.916,1.9,8.58,8.58,0,0,0,6.342-2.914l4.218,3.72A13.485,13.485,0,0,1,170.967,71.9a14.632,14.632,0,0,1-4.467-.692,10.729,10.729,0,0,1-2.122-1.009,10.243,10.243,0,0,1-2.036-1.355,11.9,11.9,0,0,1-2.987-4.669,18.953,18.953,0,0,1-1.257-7.5,21.477,21.477,0,0,1,1.089-7.38,12.94,12.94,0,0,1,2.79-4.728,10.374,10.374,0,0,1,3.88-2.536,12.086,12.086,0,0,1,4.187-.778,11.849,11.849,0,0,1,8.4,3.372q3.488,3.372,3.545,9.284v4.952Zm12.256-4.952a7.8,7.8,0,0,0-1.819-5.3,6.288,6.288,0,0,0-8.619,0,8.188,8.188,0,0,0-1.818,5.3Z" transform="translate(38.282 9.99)" fill="#fff"/>
      <rect id="Rectangle_735" data-name="Rectangle 735" width="5.819" height="5.993" transform="translate(295.792 75.548)" fill="#fff"/>
      <path id="Path_853" data-name="Path 853" d="M247.01,41.631h5.817v3.113a9.891,9.891,0,0,1,7.479-3.488q5.331.145,7.786,3.92a8,8,0,0,1,1.641,3.719,48.675,48.675,0,0,1,.419,7.725,47.96,47.96,0,0,1-.419,7.609,8.382,8.382,0,0,1-1.646,3.777,8.777,8.777,0,0,1-3.154,2.766A9.85,9.85,0,0,1,260.3,71.9a7.9,7.9,0,0,1-3.989-1,12.679,12.679,0,0,1-3.488-2.524V83.659H247.01Zm11.543,24.274a5.771,5.771,0,0,0,3.267-.811,4.561,4.561,0,0,0,1.7-2.139,11.386,11.386,0,0,0,.754-3.008q.058-1.619.057-3.326,0-1.792-.057-3.5a10.681,10.681,0,0,0-.754-3.008,4.219,4.219,0,0,0-1.7-2.139,6.309,6.309,0,0,0-3.267-.723,5.138,5.138,0,0,0-3.1.838,4.893,4.893,0,0,0-1.759,2.2,11.314,11.314,0,0,0-.7,2.951,33.632,33.632,0,0,0-.168,3.384,30.01,30.01,0,0,0,.168,3.182,11.393,11.393,0,0,0,.7,3.036,4.883,4.883,0,0,0,1.759,2.2,5.017,5.017,0,0,0,3.1.868" transform="translate(59.811 9.99)" fill="#fff"/>
      <path id="Path_854" data-name="Path 854" d="M270.728,31.811h5.817V66.144q0,2.048,2.184,2.048h2.016v5.647H278.15A8.176,8.176,0,0,1,272.9,72.2q-2.176-1.662-2.175-5.6Z" transform="translate(65.554 7.703)" fill="#fff"/>
      <path id="Path_855" data-name="Path 855" d="M200.535,51.183c20.785,8.788-7.238,34.694-16.969,20.611a238.869,238.869,0,0,1,5.78-39.206c16.625-6.705,27.541,7.471,11.189,18.595m-2.551,2.134c-7.955,3.628-8.475,10.4-8.776,18.524,7.674.277,17.7-14.268,8.776-18.524m-5.3-4.267c1.684.052,12.238-9.034,11.669-12.621-8.881-7.522-11.67,5.287-11.669,12.621" transform="translate(44.449 7.472)" fill="#fff"/>
      <path id="Path_856" data-name="Path 856" d="M210.373,43.189c11.433,2.175,1.22,22.33,2.9,31.072-11.38-1.361-2.565-22.772-2.9-31.072M212.4,33.8c4.472.12,6.754,4.669,3.293,7.124-4.508,0-5.718-3.759-3.293-7.124" transform="translate(50.228 8.184)" fill="#fff"/>
      <path id="Path_857" data-name="Path 857" d="M239.669,46.776c.853,10-4.027,32.117-17.578,23.245-14.654-11.517,6.5-45.462,17.578-23.245m-6.819-4.149c-8.871,2.989-12.172,18.247-7.72,25.516,7.6-5.4,9.876-17.025,7.72-25.516" transform="translate(52.567 9.54)" fill="#fff"/>
      <path id="Path_858" data-name="Path 858" d="M1.638,58.225c-4.225-9.188.12-21.306,8.465-27C17.5,25.846,27.549,25.4,32.027,17.509a9.972,9.972,0,0,0,.994-7.172c4.4,4.384,2.237,12.246-1.936,16.2-3.929,4.093-9.331,6.227-14.045,8.637C7.961,39.57,2.818,48.012,1.638,58.225" transform="translate(0 2.503)" fill="#fff"/>
      <path id="Path_859" data-name="Path 859" d="M31.218,0c14.819,5.879,10.391,30.39,0,38.679,1.479-6.726,2.645-13.011,2.63-19.689A81,81,0,0,0,31.218,0" transform="translate(7.559 0)" fill="#fff"/>
      <path id="Path_860" data-name="Path 860" d="M74.614,68.457c-.773-7.3-3.273-14.352-9.427-18.487-4.361-3.158-10.112-5.455-14.534-9.174a23.04,23.04,0,0,1-8.265-17.3A16.527,16.527,0,0,1,46.4,10.724c4.323-4.795,12.107-8.181,17.963-4.259a6.99,6.99,0,0,1,2.717,5.472A6.826,6.826,0,0,0,63.233,8.5c-5.918-1.427-12.558,4.564-13.8,10.018a21.136,21.136,0,0,0,2.536,13.645,25.131,25.131,0,0,0,7.153,6.883c11.414,7.34,18.617,14.695,15.489,29.409" transform="translate(10.244 1.15)" fill="#fff"/>
      <path id="Path_861" data-name="Path 861" d="M71.019,49.983c-.056-3.076-3.1-4.956-6.125-5.741l0-.007c-9.234-2.155-46.36-9.367-52.4-3.134C5.39,51.021,2.3,71.881,15.72,77.882c0,.025-.011.046-.015.072,30.214,1.163,60.636,18.6,55.314-27.971m-54.75-3.707c.43-.734.9-1.476,1.383-2.221,3.138.434,6.294.483,9.456.73a3.2,3.2,0,0,0,.01.545C26.151,51,18.636,54.157,13.386,55.5a23.787,23.787,0,0,1,2.883-9.219m9.2,23.715A11.3,11.3,0,0,1,24.57,72.9c-1.974-.006-6.991-.887-8.1-.851-.631-.289-1.6-.211-1.905-.9l.145.345c-2.273-3.18-2.4-7.362-1.792-11.208a26.682,26.682,0,0,0,9.918-3.52c4.226,3.047,3.744,8.74,2.63,13.224m17.764,4.923c-2.616-4.5-2.456-10.438-.771-15.251a2.388,2.388,0,0,0-.833-3.181c-7.11-.415-5.028,13.091-3.863,17.869-3.015-.284-5.905-.614-8.425-.914,2.015-6.341,2.836-14.547-2.652-19.354,2.8-2.322,5.12-5.274,4.97-9,7.987.052,15.008,2.954,23.018,3.008C50.1,55.814,48.489,67.7,52.652,75.887c-3.4-.344-6.593-.658-9.424-.973M64.969,59.971c-.63,5.349-.814,14.824-6.931,16.516-3.2-9.173-2.926-23.8,5.9-29.793,2.363,4.1,1.272,8.856,1.033,13.277" transform="translate(1.552 9.351)" fill="#fff"/>
      <path id="Path_862" data-name="Path 862" d="M39.325,47.6c-2.222-2.934-6.5,1.976-4.642,4.329,2.222,2.934,6.5-1.976,4.642-4.329" transform="translate(8.288 11.305)" fill="#fff"/>
    </g>
  </g>
</svg>
