<svg xmlns="http://www.w3.org/2000/svg" xmlns:xlink="http://www.w3.org/1999/xlink" width="59.332" height="67.075" viewBox="0 0 59.332 67.075">
  <defs>
    <clipPath id="clip-path">
      <rect id="Rectangle_729" data-name="Rectangle 729" width="59.332" height="67.075" fill="#ef8f00"/>
    </clipPath>
  </defs>
  <g id="Group_697" data-name="Group 697" clip-path="url(#clip-path)">
    <path id="Path_845" data-name="Path 845" d="M32.974,7.928V5.557H26.368V7.928a28.587,28.587,0,0,1,3.3-.185,30.933,30.933,0,0,1,3.3.185M26.747,40.9a.7.7,0,0,1-.9-1.069L44.924,23.6a.686.686,0,0,1,.981.078.7.7,0,0,1-.078.981ZM12.659,36.724a.7.7,0,0,1,0,1.4H7.908a.7.7,0,0,1,0-1.4ZM28.971,54.436a.7.7,0,1,1,1.4,0v4.741a.7.7,0,1,1-1.4,0ZM46.683,38.123h4.741a.7.7,0,0,0,0-1.4H46.683a.7.7,0,0,0,0,1.4M30.37,20.412a.7.7,0,1,1-1.4,0V15.661a.7.7,0,1,1,1.4,0ZM8.7,16.439A29.659,29.659,0,0,1,24.969,8.112V5.557H20.344a.7.7,0,0,1-.7-.709V.7a.7.7,0,0,1,.7-.7H39a.7.7,0,0,1,.7.7V4.848a.7.7,0,0,1-.7.709H34.373V8.112a29.765,29.765,0,0,1,14.7,6.859l3.041-2.565a.715.715,0,0,1,.991.087l5.159,6.111a.685.685,0,0,1-.087.981l-3.051,2.584a29.772,29.772,0,0,1,1.953,3.9,29.727,29.727,0,0,1,.01,22.686A29.671,29.671,0,1,1,2.254,26.067,29.561,29.561,0,0,1,8.7,16.439M18.858,11.28A28.282,28.282,0,0,0,3.546,48.218,28.3,28.3,0,0,0,40.475,63.539,28.261,28.261,0,0,0,49.656,17.42c-.33-.33-.67-.651-1.03-.972l-.058-.058a28.489,28.489,0,0,0-8.093-5.11,27.724,27.724,0,0,0-6.723-1.836l-.175-.01a30.3,30.3,0,0,0-3.847-.291h-.058c-.719,0-1.438.029-2.137.087h-.078l-.068.01c-.515.039-1.03.107-1.554.185a.454.454,0,0,1-.165.019h-.087a27.724,27.724,0,0,0-6.723,1.836m27.475,9.463a23.4,23.4,0,0,0-7.646-5.12l-.039-.019a24.2,24.2,0,0,0-4.372-1.312,23.95,23.95,0,0,0-9.21,0,22.953,22.953,0,0,0-4.411,1.331A23.581,23.581,0,0,0,13,20.742a23.519,23.519,0,0,0-2.944,29.749A23.12,23.12,0,0,0,13,54.076l.039.039a23.612,23.612,0,0,0,3.546,2.9,23.6,23.6,0,0,0,13.087,3.964A23.711,23.711,0,0,0,38.687,59.2a23.028,23.028,0,0,0,4.071-2.176,23.51,23.51,0,0,0,3.575-2.944l.039-.039a23.641,23.641,0,0,0,2.9-3.536,23.115,23.115,0,0,0,2.176-4.08l.019-.029a23.251,23.251,0,0,0,1.321-4.372A23.484,23.484,0,0,0,51.453,28.4l-.01-.039a23.46,23.46,0,0,0-5.11-7.617m-2.8-4.1a23.9,23.9,0,0,0-4.314-2.312l-.039-.019a26.041,26.041,0,0,0-4.634-1.4,25.221,25.221,0,0,0-9.754,0,24.745,24.745,0,0,0-4.673,1.418,23.9,23.9,0,0,0-4.314,2.312,25.882,25.882,0,0,0-3.8,3.109,25.33,25.33,0,0,0-5.421,8.112,25.227,25.227,0,0,0-1.409,4.673,24.726,24.726,0,0,0,0,9.754,25.129,25.129,0,0,0,1.409,4.663A24.828,24.828,0,0,0,8.9,51.268a24.439,24.439,0,0,0,3.109,3.8l.039.039a25.485,25.485,0,0,0,3.76,3.08,25.141,25.141,0,0,0,4.314,2.3,24.437,24.437,0,0,0,4.663,1.418,25.271,25.271,0,0,0,9.764,0,24.531,24.531,0,0,0,4.673-1.418,25.507,25.507,0,0,0,4.314-2.3,24.987,24.987,0,0,0,3.789-3.119l.039-.039a25.342,25.342,0,0,0,3.07-3.75,24.235,24.235,0,0,0,2.312-4.314l.019-.039a24.815,24.815,0,0,0,1.4-4.634,25.271,25.271,0,0,0,0-9.764,24.437,24.437,0,0,0-1.418-4.663l-.01-.039a25.054,25.054,0,0,0-9.2-11.182m6.6-.729a25.288,25.288,0,0,1,2.273,2.409,27.871,27.871,0,0,1,1.972,2.643l2.371-1.992-4.265-5.042ZM21.044,4.148H38.3V1.4H21.044Z" transform="translate(0 0)" fill="#ef8f00" fill-rule="evenodd"/>
  </g>
</svg>
