<svg xmlns="http://www.w3.org/2000/svg" xmlns:xlink="http://www.w3.org/1999/xlink" width="68.105" height="60.846" viewBox="0 0 68.105 60.846">
  <defs>
    <clipPath id="clip-path">
      <rect id="Rectangle_731" data-name="Rectangle 731" width="68.105" height="60.846" fill="#ef8f00"/>
    </clipPath>
  </defs>
  <g id="Group_701" data-name="Group 701" clip-path="url(#clip-path)">
    <path id="Path_847" data-name="Path 847" d="M28.783,45.734H66.694v-1.79H58.141l-.165.01H10.13l-.175-.01H1.4v1.79H28.783ZM40.149,1.411V16.134a.659.659,0,0,1-.126.409l-1.781,2.7a.715.715,0,0,1-.973.2.681.681,0,0,1-.2-.2l-1.216-1.829-1.207,1.829a.715.715,0,0,1-.973.2.681.681,0,0,1-.2-.2l-1.216-1.829-1.216,1.829a.7.7,0,0,1-.963.2.681.681,0,0,1-.2-.2l-1.8-2.725a.671.671,0,0,1-.117-.379V1.411H10.13a2.791,2.791,0,0,0-2.8,2.8V39.73a2.791,2.791,0,0,0,2.8,2.8H57.976a2.791,2.791,0,0,0,2.8-2.8V4.213a2.791,2.791,0,0,0-2.8-2.8Zm-10.8,0h9.4V15.929l-1.1,1.664-1.207-1.839a.7.7,0,0,0-.973-.195.651.651,0,0,0-.2.195l-1.216,1.839-1.207-1.839a.7.7,0,0,0-.973-.195.562.562,0,0,0-.2.195l-1.216,1.839-1.1-1.664ZM54.94,35.751a.706.706,0,0,1-.71.7.7.7,0,0,1-.7-.7V25.893l-.467,1.216a.693.693,0,0,1-.9.4.706.706,0,0,1-.409-.9l1.79-4.632a.709.709,0,0,1,.691-.584h.078l.01.01h.01a.683.683,0,0,1,.574.448l1.81,4.758a.7.7,0,0,1-.4.9.69.69,0,0,1-.9-.4l-.467-1.226Zm-5.547,0a.7.7,0,0,1-.7.7.706.706,0,0,1-.71-.7V25.893l-.467,1.216a.693.693,0,0,1-.9.4.7.7,0,0,1-.4-.9L48,21.972a.7.7,0,0,1,.691-.584l.136.019h.039l.088.029a.689.689,0,0,1,.4.409h.01l1.81,4.758a.706.706,0,0,1-.409.9.693.693,0,0,1-.9-.4l-.467-1.226Zm6.666,2.326a.7.7,0,1,1,0,1.4h-9.2a.7.7,0,1,1,0-1.4Zm6.13-33.863V39.73a4.2,4.2,0,0,1-1.08,2.812h6.286a.706.706,0,0,1,.71.7v3.2a.712.712,0,0,1-.71.7H64.8v9.1h2.6a.706.706,0,0,1,.71.7v3.2a.706.706,0,0,1-.71.7H.7a.7.7,0,0,1-.7-.7v-3.2a.7.7,0,0,1,.7-.7H3.308v-9.1H.7a.7.7,0,0,1-.7-.7v-3.2a.7.7,0,0,1,.7-.7H6.987a4.2,4.2,0,0,1-1.08-2.812V4.213A4.236,4.236,0,0,1,10.13,0H57.976a4.219,4.219,0,0,1,4.213,4.213M15.238,56.244H28.083v-9.1H15.238Zm-10.529,0h9.127v-9.1H4.71Zm48.148-9.1H40.013v9.1H52.857Zm1.411,9.1H63.4v-9.1H54.268Zm-14.956,1.4H1.4v1.8H66.694v-1.8H39.312Zm-.691-10.5H29.494v9.1h9.127Z" transform="translate(0 -0.002)" fill="#ef8f00" fill-rule="evenodd"/>
  </g>
</svg>
