<svg xmlns="http://www.w3.org/2000/svg" xmlns:xlink="http://www.w3.org/1999/xlink" width="80.286" height="49.055" viewBox="0 0 80.286 49.055">
  <defs>
    <clipPath id="clip-path">
      <rect id="Rectangle_732" data-name="Rectangle 732" width="80.286" height="49.055" fill="#ef8f00"/>
    </clipPath>
  </defs>
  <g id="Group_703" data-name="Group 703" clip-path="url(#clip-path)">
    <path id="Path_848" data-name="Path 848" d="M74.161,6.6H47.887v4.638a15.511,15.511,0,0,1,4.77,5.376,16.955,16.955,0,0,1,0,15.83,15.511,15.511,0,0,1-4.77,5.376v4.638H74.161ZM2.776,0H77.5a2.727,2.727,0,0,1,1.961.815,2.746,2.746,0,0,1,.815,1.961v43.5a2.746,2.746,0,0,1-.815,1.961l-.044.044a2.735,2.735,0,0,1-1.917.771H2.776A2.783,2.783,0,0,1,0,46.279V2.776A2.765,2.765,0,0,1,.815.815,2.746,2.746,0,0,1,2.776,0M77.5,1.586a1.185,1.185,0,0,1,1.19,1.19v43.5a1.182,1.182,0,0,1-.341.837l-.033.033a1.2,1.2,0,0,1-.815.319H47.612V44.042H74.954a.79.79,0,0,0,.793-.793V5.805a.79.79,0,0,0-.793-.793H47.612V1.586Zm-44.825,0H2.776a1.146,1.146,0,0,0-.837.353V1.928a1.19,1.19,0,0,0-.353.848v43.5a1.146,1.146,0,0,0,.353.837,1.146,1.146,0,0,0,.837.353h29.9V44.042H5.321a.79.79,0,0,1-.793-.793V5.805a.79.79,0,0,1,.793-.793H32.674Zm8.262,0V47.468h5.089V1.586Zm-1.6,45.882V1.586H34.26V47.468ZM66.449,21.526a3.015,3.015,0,0,1,2.126,5.145,3,3,0,0,1-2.126.881,3.035,3.035,0,0,1-2.126-.881l-.044-.055a3.014,3.014,0,0,1,2.17-5.089m1,2.016a1.371,1.371,0,0,1,.419,1,1.406,1.406,0,0,1-.408,1h-.011a1.415,1.415,0,0,1-1,.419,1.435,1.435,0,0,1-1-.419l-.033-.033a1.445,1.445,0,0,1-.386-.969,1.415,1.415,0,0,1,.419-1,1.389,1.389,0,0,1,1-.419,1.371,1.371,0,0,1,1,.419M13.825,21.526a2.98,2.98,0,0,0-2.071.837l-.055.055a3,3,0,0,0-.881,2.126,3.029,3.029,0,0,0,.881,2.115v.011h.011a3,3,0,0,0,5.122-2.126,3.028,3.028,0,0,0-3.007-3.018m1,2a1.406,1.406,0,0,0-1-.408,1.436,1.436,0,0,0-.969.375l-.033.044a1.437,1.437,0,0,0,0,2,1.435,1.435,0,0,0,1,.419,1.461,1.461,0,0,0,1.013-.419,1.445,1.445,0,0,0,.408-1,1.371,1.371,0,0,0-.419-1l.011-.011ZM11.7,26.659l.011-1.113a.785.785,0,0,0-.011,1.113M9.132,38.689h9.4a.793.793,0,0,0,0-1.586h-9.4a.793.793,0,1,0,0,1.586m52.624,0a.793.793,0,0,1,0-1.586h9.4a.793.793,0,0,1,0,1.586Zm0-26.736a.793.793,0,0,1,0-1.586h9.4a.793.793,0,0,1,0,1.586Zm-52.624,0h9.4a.793.793,0,0,0,0-1.586h-9.4a.793.793,0,0,0,0,1.586m38.755,1.267a14.068,14.068,0,0,1,3.371,4.142,15.363,15.363,0,0,1,0,14.332,14.068,14.068,0,0,1-3.371,4.142Zm-15.489,0a13.9,13.9,0,0,0-3.371,4.142,15.28,15.28,0,0,0,0,14.332A13.9,13.9,0,0,0,32.4,35.835Zm-4.77,3.393a15.294,15.294,0,0,1,4.77-5.376V6.6H6.114V42.456H32.4V37.818a15.294,15.294,0,0,1-4.77-5.376,16.871,16.871,0,0,1,0-15.83" transform="translate(0 -0.003)" fill="#ef8f00" fill-rule="evenodd"/>
  </g>
</svg>
